<?xml version="1.0" encoding="utf-8"?>
<!-- Generator: Adobe Illustrator 22.1.0, SVG Export Plug-In . SVG Version: 6.00 Build 0)  -->
<svg version="1.1" id="Layer_1" xmlns="http://www.w3.org/2000/svg" xmlns:xlink="http://www.w3.org/1999/xlink" x="0px" y="0px"
	 viewBox="0 0 1500 1500" style="enable-background:new 0 0 1500 1500;" xml:space="preserve">
<style type="text/css">
	.st0{fill:#D84A4A;}
	.st1{fill:#1C1C4C;}
</style>
<g>
	<path class="st0" d="M365.9,740.5c-11.7-66.3-69.4-119.6-128.8-119c-59.4,0.6-98.1,54.8-86.4,121.1c11.7,66.3,69.4,119.6,128.8,119
		C339,861,377.7,806.8,365.9,740.5z M286.9,645.5c8.6,5,17,10.1,24.2,17c0,0,8.7,8.8,14.2,17.7c1.2,1.9,2.1,4,2.5,6.2
		c0.6,3.5-0.7,4.6-5.5,6.8c-9.6,4.4-19.3,8.8-28.9,13.2c-5,2.3-10.7-0.3-11.7-5.6c-3.3-16.8-6.5-33.7-9.7-50.6
		C272.4,641.5,283.5,643.5,286.9,645.5z M267.1,720.2c1.9-4,6.7-5.9,11.1-4.4c6.6,2.2,11.1,10.4,9.3,17.1c-1.1,4.2-4.2,6.6-8.5,6.5
		C270.5,739.3,263.4,727.9,267.1,720.2z M187.9,656.3c11.2-11.4,24.5-19,40.2-22.1c0.3-0.1,0.2,0,0,0c5-0.1,17.1-1.9,20.8,17.7
		c3.2,14.8,6.6,29.5,9.9,44.2c0.5,2.1,1.7,4.4-0.7,6.4c-2.3,1.9-4.3,3-7.7,1.7c-19.4-7.3-39-14.1-58.6-21.2c-6.3-2.3-8.3-6-9.2-12.9
		C181.9,664.3,184,660.2,187.9,656.3z M253.1,745c-9.7,19.8-19.4,39.6-29.3,59.4c-3.1,6.2-8.2,6.9-17.5,5.4
		c-7.7-1.3-11.4-6.5-15.3-11.8c-13.7-18.4-25.4-38.8-25.6-61.8c-0.1-8.8,5.7-18,10.8-20.1c0.5-0.2,1-0.3,1.5-0.4
		c2.1-0.4,4.2-0.2,6.2,0.3c6.3,1.5,12.7,3,19.1,4.6c14.5,3.7,29,7.5,43.5,11.3C250.9,732.9,255,741,253.1,745z M330.5,816.8
		c-1,9.1-5.3,15.3-13.4,19.4c-8.5,4.3-17.1,7.5-26.5,8.9c-6.2,0.9-12.6,0.8-18.8-0.2c-11.2-1.8-18.3-13-15-23.9v0
		c6.8-19.5,13.6-38.9,20.4-58.4c1.5-4.4,9.4-5.5,12.6-1.7c9.4,11.3,18.8,22.6,28.2,33.9c3.1,3.7,6.1,7.4,9.2,11.1
		C329.8,809,331,812.9,330.5,816.8z M354.2,776.4c-2.4,7.7-12.3,9.7-17.8,3.9l-31.3-33.4c-2.2-2.3-3.4-5.4-3.4-8.5v-1.2
		c0-5.1,3.1-9.7,7.9-11.6l24.1-9.5c5.7-2.3,12.2,0.2,14.9,5.7c3.7,7.4,7.9,18.5,7.9,31.5C356.5,764.1,355.9,771.2,354.2,776.4z"/>
	<g>
		<path class="st1" d="M434.6,638.7h30.5v88.1c5.8-8,16-17.5,33.5-17.5c9.5,0,23.5,2.7,32,13.3c7.5,9.3,8.5,20,8.5,30.5v68.1h-30.5
			v-59.1c0-6-0.2-15.5-5.8-21.3c-4.8-5-11.3-5.5-14.3-5.5c-8,0-14.3,2.8-18.8,9.5c-4.5,7-4.8,14.8-4.8,21v55.3h-30.5V638.7z"/>
		<path class="st1" d="M596,712.8v61.3c0,5.8,0.5,13.5,6.5,19c3.8,3.3,9.8,5.5,15.5,5.5c5.8,0,11.8-2.3,15.5-5.5
			c6-5.5,6.5-13.3,6.5-19v-61.3h30.5v66.3c0,9.8-1.3,22.8-13.3,33.3c-10,8.8-26,12.3-39.3,12.3c-13.3,0-29.3-3.5-39.3-12.3
			c-12-10.5-13.3-23.5-13.3-33.3v-66.3H596z"/>
		<path class="st1" d="M730.2,726.8c10.8-15,26-17.5,35.3-17.5c32,0,53.3,24.8,53.3,57.6c0,33-22,57.8-54.1,57.8
			c-7,0-22.8-1.2-34.5-17.5v14h-30.5V638.7h30.5V726.8z M727.2,766.9c0,17.3,12.5,30.8,30,30.8c17.5,0,30-13.5,30-30.8
			c0-17.3-12.5-30.5-30-30.5C739.7,736.3,727.2,749.6,727.2,766.9z"/>
		<path class="st1" d="M923.9,745.9c-6.5-6-14.5-9.5-25-9.5c-20.3,0-30.5,14.8-30.5,30.5c0,17.8,13.3,30.8,31.5,30.8
			c6.8,0,15.8-2,24-9.5v29.8c-6,3-15.5,6.8-28,6.8c-17,0-32-6.5-41.8-15.8c-8.3-7.8-17.3-21.3-17.3-41.5c0-19,7.8-34.3,18.8-44
			c13.3-11.8,28.5-14,39-14c11.3,0,20.5,2.3,29.3,6.5V745.9z"/>
		<path class="st1" d="M1030,712.8h30.5v108.4H1030v-14c-11,15.8-25.5,17.5-33.3,17.5c-33.3,0-55.3-26-55.3-57.8
			c0-32,21.8-57.6,53.8-57.6c8.3,0,24.5,1.5,34.8,17.5V712.8z M973,766.9c0,17.3,12.5,30.8,30,30.8c17.5,0,30-13.5,30-30.8
			c0-17.3-12.5-30.5-30-30.5C985.5,736.3,973,749.6,973,766.9z"/>
		<path class="st1" d="M1120.1,878.5h-30.5V712.8h30.5v14c4.8-6.8,15.3-17.5,35.3-17.5c9.5,0,24.8,2.3,37,14.5
			c8,8,16.3,21.5,16.3,43c0,24.5-10.8,37.8-17,43.8c-8.3,7.8-20.8,14-36.8,14c-7.5,0-22.8-1.2-34.8-17.5V878.5z M1127.4,743.6
			c-6.8,5.8-10.3,13.3-10.3,23.3c0,10,4,18.3,10,23.5c4,3.5,10.5,7.3,20,7.3c10,0,16.5-4,20.5-7.8c6.5-6,9.5-15,9.5-23
			c0-8-3.3-17-9.3-22.8c-5.5-5-13.5-7.8-20.8-7.8C1139.2,736.3,1132.9,738.6,1127.4,743.6z"/>
		<path class="st1" d="M1262.8,878.5h-30.5V712.8h30.5v14c4.8-6.8,15.3-17.5,35.3-17.5c9.5,0,24.8,2.3,37,14.5
			c8,8,16.3,21.5,16.3,43c0,24.5-10.8,37.8-17,43.8c-8.3,7.8-20.8,14-36.8,14c-7.5,0-22.8-1.2-34.8-17.5V878.5z M1270.1,743.6
			c-6.8,5.8-10.3,13.3-10.3,23.3c0,10,4,18.3,10,23.5c4,3.5,10.5,7.3,20,7.3c10,0,16.5-4,20.5-7.8c6.5-6,9.5-15,9.5-23
			c0-8-3.3-17-9.3-22.8c-5.5-5-13.5-7.8-20.8-7.8C1281.8,736.3,1275.6,738.6,1270.1,743.6z"/>
	</g>
</g>
</svg>
